Coordinates
version=1
nRows=18
nColumns=32
inDegrees=yes

Units are S.I. units (second, meters, Newtons, ...)
If the header above contains a line with 'inDegrees', this indicates whether rotational values are in degrees (yes) or radians (no).

endheader
time	pelvis_tilt	pelvis_list	pelvis_rotation	pelvis_tx	pelvis_ty	pelvis_tz	hip_flexion_r	hip_adduction_r	hip_rotation_r	knee_angle_r	knee_adduction_r	med_cond_adduction_r	lat_cond_adduction_r	patella_r_constrained_knee_angle	ankle_angle_r	subtalar_angle_r	mtp_angle_r	hip_flexion_l	hip_adduction_l	hip_rotation_l	knee_angle_l	knee_adduction_l	med_cond_adduction_l	lat_cond_adduction_l	patella_l_constrained_knee_angle	ankle_angle_l	subtalar_angle_l	mtp_angle_l	lumbar_extension	lumbar_bending	lumbar_rotation
      0.66500000	    -20.22345987	     -0.63246387	     -3.81957019	      0.16020373	      0.72028624	     -1.18881389	     63.97998206	    -33.92481810	     -8.00185934	    -69.92718381	      4.66679671	     -0.00000000	      0.00000000	     -1.22045959	     15.33558933	     13.90491893	     -0.00000000	     64.09032968	    -42.31783422	    -12.21729662	    -71.39062456	      3.90678333	      0.00000000	      0.00000000	     -1.24600145	     15.02377274	     19.07281724	      0.00000000	     -3.54196374	      1.54866592	      1.26862036
      0.67000000	    -19.97745702	     -0.60198599	     -3.61248209	      0.16003727	      0.71810776	     -1.18933129	     64.07030844	    -34.36242477	     -7.97318703	    -70.50341843	      4.61573354	      0.00000000	      0.00000000	     -1.23051679	     15.69608921	     14.30548198	      0.00000000	     64.30374115	    -42.21240042	    -11.95724004	    -71.95285995	      3.82026844	      0.00000000	      0.00000000	     -1.25581431	     15.38931939	     19.09070473	      0.00000000	     -3.96050277	      1.46247820	      0.96709729
      0.67500000	    -20.06794147	     -0.63383980	     -3.72386876	      0.15954731	      0.71510760	     -1.18902904	     64.70033708	    -34.30348304	     -7.95570001	    -71.16536084	      4.27318886	      0.00000000	      0.00000000	     -1.24206986	     15.82949778	     14.43185249	     -0.00000000	     64.92067231	    -42.54134683	    -11.65740448	    -72.56682619	      3.82635394	      0.00000000	      0.00000000	     -1.26653004	     15.43024339	     19.14981199	     -0.00000000	     -3.92955389	      1.47190061	      1.07543867
      0.68000000	    -20.15609494	     -0.68221969	     -3.80928035	      0.15908129	      0.71204460	     -1.18886275	     65.28170172	    -34.28664659	     -7.78939886	    -71.80170548	      4.15613028	     -0.00000000	     -0.00000000	     -1.25317617	     16.08820872	     14.48781086	      0.00000000	     65.54613884	    -42.81566342	    -11.24118663	    -73.17019255	      3.87197988	      0.00000000	      0.00000000	     -1.27706077	     15.72418995	     19.17847858	     -0.00000000	     -3.89863104	      1.62529541	      1.31832458
      0.68500000	    -19.99484417	     -0.55813527	     -3.50654638	      0.15883557	      0.70972756	     -1.18962655	     65.51456100	    -34.86118763	     -7.74238153	    -72.35189693	      4.03467423	      0.00000000	      0.00000000	     -1.26277882	     16.32988682	     14.82922571	      0.00000000	     65.84716991	    -42.51612593	    -11.12579664	    -73.73439162	      3.64496576	     -0.00000000	     -0.00000000	     -1.28690791	     16.02646488	     19.21466976	      0.00000000	     -4.21302566	      1.38795468	      0.84262661
      0.69000000	    -19.97064067	     -0.68572544	     -3.73396569	      0.15848960	      0.70703529	     -1.18917233	     65.93395585	    -34.61850546	     -7.82328286	    -72.94546487	      3.64624552	      0.00000000	      0.00000000	     -1.27313854	     16.50001975	     14.97662169	     -0.00000000	     66.34212459	    -43.06264225	    -10.72035999	    -74.34945797	      3.79998258	      0.00000000	     -0.00000000	     -1.29764284	     16.01647292	     19.24661148	      0.00000000	     -4.35587673	      1.48046570	      0.97008300
      0.69500000	    -19.96331279	     -0.68279772	     -3.71669965	      0.15812891	      0.70430088	     -1.18924670	     66.38485648	    -34.76517086	     -7.72959342	    -73.54491612	      3.48325225	      0.00000000	      0.00000000	     -1.28360093	     16.73906114	     15.16911276	     -0.00000000	     66.82926370	    -43.18436687	    -10.43831020	    -74.91586770	      3.75410177	      0.00000000	      0.00000000	     -1.30752855	     16.22275574	     19.26930465	      0.00000000	     -4.46575352	      1.51346857	      0.99881884
      0.70000000	    -19.91585274	     -0.66434355	     -3.67126012	      0.15781935	      0.70170028	     -1.18942904	     66.77114336	    -34.95933688	     -7.64113590	    -74.10712775	      3.32423858	     -0.00000000	     -0.00000000	     -1.29341338	     16.96755270	     15.39744345	     -0.00000000	     67.26536145	    -43.26714182	    -10.25905298	    -75.48827754	      3.63005750	     -0.00000000	     -0.00000000	     -1.31751899	     16.38180559	     19.29269269	     -0.00000000	     -4.63179440	      1.42086662	      0.80272931
      0.70500000	    -19.90117572	     -0.75765081	     -3.71509650	      0.15744548	      0.69905489	     -1.18945801	     67.13747136	    -34.96034175	     -7.68566426	    -74.65318288	      3.08228342	      0.00000000	      0.00000000	     -1.30294384	     17.16055112	     15.50054969	      0.00000000	     67.81274987	    -43.49515846	     -9.83185875	    -76.05840083	      3.63068296	     -0.00000000	     -0.00000000	     -1.32746952	     16.58085513	     19.31860321	     -0.00000000	     -4.78123967	      1.60186982	      0.92118344
      0.71000000	    -19.88360225	     -0.80198064	     -3.69528164	      0.15710218	      0.69643918	     -1.18961025	     67.51039664	    -35.07311344	     -7.66670213	    -75.20106057	      2.90612755	     -0.00000000	     -0.00000000	     -1.31250611	     17.37419332	     15.65201273	     -0.00000000	     68.33255219	    -43.61735084	     -9.52265285	    -76.61516896	      3.53401731	     -0.00000000	     -0.00000000	     -1.33718696	     16.77991947	     19.34080561	     -0.00000000	     -4.92469670	      1.69339034	      0.92356632
      0.71500000	    -19.80838740	     -0.82341743	     -3.68353344	      0.15686324	      0.69402694	     -1.18974621	     67.81814303	    -35.19601427	     -7.69006181	    -75.71872662	      2.66912100	     -0.00000000	     -0.00000000	     -1.32154109	     17.56710999	     15.81853195	      0.00000000	     68.72670261	    -43.74182479	     -9.33456918	    -77.14778037	      3.40169630	     -0.00000000	     -0.00000000	     -1.34648278	     16.96417392	     19.36176829	      0.00000000	     -5.14744522	      1.69083712	      0.83188978
      0.72000000	    -19.67310892	     -0.72525906	     -3.57825468	      0.15670779	      0.69179990	     -1.19005803	     68.12688618	    -35.52263217	     -7.64265879	    -76.24557796	      2.43824435	     -0.00000000	     -0.00000000	     -1.33073638	     17.75663212	     16.12684238	      0.00000000	     68.95114990	    -43.70294822	     -9.41426679	    -77.65491729	      3.14732657	      0.00000000	      0.00000000	     -1.35533399	     17.08081483	     19.37962003	     -0.00000000	     -5.44261089	      1.51723986	      0.62468620
      0.72500000	    -19.76908397	     -0.87662259	     -3.60266192	      0.15621474	      0.68889954	     -1.19020372	     68.55825862	    -35.50107768	     -7.65186231	    -76.76950816	      2.30142103	      0.00000000	      0.00000000	     -1.33988068	     17.95274464	     16.15399259	     -0.00000000	     69.73960551	    -43.89496641	     -8.78084802	    -78.24070888	      3.17256565	     -0.00000000	     -0.00000000	     -1.36555798	     17.27853130	     19.39187013	     -0.00000000	     -5.45152600	      1.69691801	      0.52461590
      0.73000000	    -19.67349540	     -0.86875441	     -3.62726643	      0.15598958	      0.68664661	     -1.19025603	     68.85637235	    -35.59697652	     -7.62515450	    -77.25177829	      2.07861359	      0.00000000	      0.00000000	     -1.34829788	     18.14831253	     16.27945920	      0.00000000	     70.04351749	    -44.04061259	     -8.71482073	    -78.73449447	      3.00758260	      0.00000000	      0.00000000	     -1.37417616	     17.46528566	     19.41131851	     -0.00000000	     -5.72163467	      1.79545043	      0.71972235
      0.73500000	    -19.58675531	     -0.86100713	     -3.58462007	      0.15571651	      0.68435867	     -1.19049475	     69.16040741	    -35.77493947	     -7.60926650	    -77.74856906	      1.86928003	      0.00000000	      0.00000000	     -1.35696852	     18.32069133	     16.46344598	      0.00000000	     70.39454126	    -44.07936816	     -8.57300108	    -79.23627300	      2.82957550	      0.00000000	      0.00000000	     -1.38293385	     17.63785479	     19.42528497	     -0.00000000	     -5.97403065	      1.67264985	      0.42255399
      0.74000000	    -19.48357294	     -0.78185056	     -3.48242442	      0.15550817	      0.68209792	     -1.19084666	     69.48491038	    -36.07799802	     -7.49716196	    -78.24833452	      1.70484955	      0.00000000	      0.00000000	     -1.36569107	     18.49101710	     16.71295533	      0.00000000	     70.67490192	    -44.03505874	     -8.60770867	    -79.72877772	      2.57999710	     -0.00000000	     -0.00000000	     -1.39152968	     17.76385412	     19.43483733	     -0.00000000	     -6.23304210	      1.53824857	      0.17320697
      0.74500000	    -19.48353213	     -0.84514445	     -3.60047177	      0.15514304	      0.67965831	     -1.19074953	     69.86136112	    -35.99879770	     -7.44284486	    -78.70824512	      1.52460282	     -0.00000000	     -0.00000000	     -1.37371803	     18.68388030	     16.71197290	      0.00000000	     71.14527505	    -44.28737593	     -8.30995107	    -80.22229227	      2.52890106	      0.00000000	      0.00000000	     -1.40014313	     17.97623633	     19.44799777	     -0.00000000	     -6.40730916	      1.75868839	      0.50687545
      0.75000000	    -19.22440934	     -0.71959174	     -3.49021483	      0.15503487	      0.67793746	     -1.19108478	     70.02456645	    -36.34239617	     -7.40299959	    -79.17183166	      1.27071446	     -0.00000000	     -0.00000000	     -1.38180914	     18.83185344	     17.02201643	     -0.00000000	     71.13670979	    -44.21733331	     -8.60530136	    -80.65237261	      2.16179516	     -0.00000000	     -0.00000000	     -1.40764945	     18.06087578	     19.45730984	      0.00000000	     -6.88422534	      1.48705781	      0.20275375
